<svg width="30" height="20" viewBox="0 0 30 20" fill="none" xmlns="http://www.w3.org/2000/svg">
<path d="M28.6457 0H0.734504C0.330527 0 0 0.330527 0 0.734504V19.0971C0 19.5011 0.330527 19.8316 0.734504 19.8316H28.6457C29.0496 19.8316 29.3802 19.5011 29.3802 19.0971V0.734504C29.3802 0.330527 29.0496 0 28.6457 0ZM26.8829 1.46901L14.6901 13.6618L2.49731 1.46901H26.8829ZM1.46901 2.49731L8.8875 9.91581L1.46901 17.3343V2.49731ZM2.53404 18.3626L9.91581 10.9808L14.1759 15.241C14.4697 15.5348 14.9104 15.5348 15.2042 15.241L19.4644 10.9808L26.8461 18.3626H2.53404ZM27.9112 17.3343L20.4927 9.91581L27.9112 2.49731V17.3343Z" fill="white"/>
</svg>
