<svg width="23" height="23" viewBox="0 0 23 23" fill="none" xmlns="http://www.w3.org/2000/svg">
<mask id="mask0" mask-type="alpha" maskUnits="userSpaceOnUse" x="0" y="0" width="23" height="23">
<rect width="23" height="23" fill="#C4C4C4"/>
</mask>
<g mask="url(#mask0)">
<path d="M12 1C5.92525 1 1 5.72559 1 11.5541C1 16.8452 5.06267 21.2146 10.3555 21.978V14.3509H7.63392V11.577H10.3555V9.73087C10.3555 6.67458 11.9074 5.33333 14.5548 5.33333C15.8225 5.33333 16.4935 5.42392 16.8107 5.46438V7.88566H15.0048C13.881 7.88566 13.4887 8.90853 13.4887 10.0607V11.577H16.7822L16.3358 14.3509H13.4887V22C18.8576 21.3017 23 16.8971 23 11.5541C23 5.72559 18.0748 1 12 1Z" fill="white"/>
</g>
</svg>
