<svg width="23" height="23" viewBox="0 0 23 23" fill="none" xmlns="http://www.w3.org/2000/svg">
<mask id="mask0" mask-type="alpha" maskUnits="userSpaceOnUse" x="0" y="0" width="23" height="23">
<rect width="23" height="23" fill="#C4C4C4"/>
</mask>
<g mask="url(#mask0)">
<path d="M6.67608 0C2.9994 0 0 2.9994 0 6.67608V16.3239C0 20.0006 2.9994 23 6.67608 23H16.3239C20.0006 23 23 20.0006 23 16.3239V6.67608C23 2.9994 20.0006 0 16.3239 0H6.67608ZM6.67608 1.76923H16.3239C19.0434 1.76923 21.2308 3.95312 21.2308 6.67608V16.3239C21.2308 19.0434 19.0469 21.2308 16.3239 21.2308H6.67608C3.95658 21.2308 1.76923 19.0469 1.76923 16.3239V6.67608C1.76923 3.95658 3.95312 1.76923 6.67608 1.76923ZM18.1346 3.53846C17.402 3.53846 16.8077 4.13281 16.8077 4.86538C16.8077 5.59796 17.402 6.19231 18.1346 6.19231C18.8672 6.19231 19.4615 5.59796 19.4615 4.86538C19.4615 4.13281 18.8672 3.53846 18.1346 3.53846ZM11.5 5.30769C8.08939 5.30769 5.30769 8.08939 5.30769 11.5C5.30769 14.9106 8.08939 17.6923 11.5 17.6923C14.9106 17.6923 17.6923 14.9106 17.6923 11.5C17.6923 8.08939 14.9106 5.30769 11.5 5.30769ZM11.5 7.07692C13.9534 7.07692 15.9231 9.04657 15.9231 11.5C15.9231 13.9534 13.9534 15.9231 11.5 15.9231C9.04657 15.9231 7.07692 13.9534 7.07692 11.5C7.07692 9.04657 9.04657 7.07692 11.5 7.07692Z" fill="white"/>
</g>
</svg>
