<svg width="23" height="23" viewBox="0 0 23 23" fill="none" xmlns="http://www.w3.org/2000/svg">
<mask id="mask0" mask-type="alpha" maskUnits="userSpaceOnUse" x="0" y="0" width="23" height="23">
<rect width="23" height="23" fill="#C4C4C4"/>
</mask>
<g mask="url(#mask0)">
<path d="M19.6219 5.72457C19.5394 5.41764 19.3714 5.09078 19.2472 4.80455C17.761 1.26758 14.5138 0 11.8919 0C8.38194 0 4.51613 2.33072 4 7.13501V8.11662C4 8.15751 4.01419 8.52552 4.03458 8.70953C4.32387 10.9991 6.14813 13.4323 7.51071 15.7219C8.97652 18.175 10.4975 20.588 12.0049 23C12.9339 21.426 13.8599 19.8313 14.768 18.2979C15.0155 17.8479 15.3025 17.3981 15.5502 16.9688C15.7154 16.6828 16.0307 16.3968 16.175 16.1308C17.6405 13.4737 20 10.7949 20 8.15751V7.07393C20 6.78796 19.6421 5.78616 19.6219 5.72457ZM11.9561 10.6518C10.9244 10.6518 9.7951 10.1409 9.23768 8.72997C9.15458 8.50533 9.16129 8.05529 9.16129 8.01414V7.38035C9.16129 5.58171 10.7035 4.76366 12.0452 4.76366C13.6968 4.76366 14.9745 6.07239 14.9745 7.70798C14.9745 9.34357 13.6077 10.6518 11.9561 10.6518Z" fill="white"/>
</g>
</svg>
