<svg width="24" height="24" viewBox="0 0 24 24" fill="none" xmlns="http://www.w3.org/2000/svg">
<path fill-rule="evenodd" clip-rule="evenodd" d="M9.26364 6.35943C9.04188 5.76974 8.78576 5.81182 8.61525 5.80536C8.44459 5.79906 8.29518 5.80218 8.06463 5.80593C7.86954 5.80911 7.54998 5.85937 7.27136 6.13992C6.99237 6.42 6.21072 7.09358 6.15667 8.52122C6.10297 9.9486 7.09825 11.367 7.23725 11.5655C7.37614 11.7647 9.13781 14.8587 12.0659 16.1312C14.9944 17.4034 15.0097 17.0156 15.5469 16.9872C16.0846 16.959 17.3033 16.3494 17.5727 15.6814C17.8421 15.0134 17.8637 14.4326 17.7951 14.3087C17.7266 14.1852 17.5347 14.105 17.2478 13.9493C16.9605 13.7934 15.5503 13.0381 15.2858 12.9312C15.0212 12.8248 14.8282 12.7693 14.6222 13.0525C14.4162 13.3349 13.8311 13.9675 13.6538 14.1549C13.4757 14.3424 13.3043 14.3598 13.0171 14.2033C12.7306 14.0477 11.7998 13.7061 10.7205 12.6765C9.88067 11.8756 9.32941 10.9036 9.16963 10.6071C9.0098 10.3104 9.16859 10.159 9.32066 10.0203C9.457 9.8949 9.62569 9.69211 9.77854 9.52816C9.93056 9.36422 9.9842 9.24538 10.089 9.05513C10.1935 8.86531 10.1515 8.69412 10.0837 8.54627C10.0158 8.39847 9.48528 6.94912 9.26364 6.35943Z" fill="white"/>
<path d="M11.8772 1.66652C14.4941 1.66652 16.9537 2.67696 18.8027 4.51169C20.6483 6.34299 21.6648 8.777 21.6648 11.3653C21.6648 13.9533 20.6483 16.3872 18.8027 18.2186C16.9536 20.0535 14.494 21.0641 11.8772 21.0641C10.2208 21.0641 8.58374 20.6462 7.14292 19.8558L6.51709 19.5124L5.83679 19.7285L2.63644 20.7452L3.64547 17.7689L3.89534 17.032L3.49063 16.3673C2.57441 14.8623 2.09013 13.1326 2.09013 11.3653C2.09013 8.777 3.10661 6.34299 4.95223 4.51164C6.80129 2.67696 9.2606 1.66652 11.8772 1.66652ZM11.8772 0C5.55186 0 0.423609 5.08815 0.423609 11.3653C0.423609 13.5124 1.02418 15.5207 2.06716 17.2339L0 23.3313L6.34133 21.3168C7.98222 22.217 9.8694 22.7305 11.8772 22.7305C18.2034 22.7305 23.3313 17.6416 23.3313 11.3653C23.3313 5.08815 18.2034 0 11.8772 0Z" fill="white"/>
</svg>
