<svg width="34" height="24" viewBox="0 0 34 24" fill="none" xmlns="http://www.w3.org/2000/svg">
<path d="M33.151 8.21165C33.2255 6.05567 32.754 3.91582 31.7803 1.9908C31.1197 1.20091 30.2028 0.667866 29.1895 0.484539C24.9984 0.104246 20.7899 -0.0516234 16.5821 0.0175981C12.3897 -0.0547652 8.19635 0.0960744 4.01993 0.469476C3.19423 0.619675 2.4301 1.00697 1.82079 1.58411C0.465157 2.8343 0.314531 4.97319 0.163905 6.7807C-0.054635 10.0306 -0.054635 13.2914 0.163905 16.5413C0.207481 17.5586 0.358956 18.5684 0.615783 19.5538C0.7974 20.3145 1.16485 21.0184 1.68523 21.6023C2.29868 22.21 3.0806 22.6193 3.92955 22.7772C7.17692 23.178 10.449 23.3441 13.7202 23.2742C18.9922 23.3496 23.6164 23.2743 29.0841 22.8525C29.9539 22.7043 30.7578 22.2945 31.3887 21.6776C31.8104 21.2557 32.1254 20.7394 32.3075 20.1714C32.8462 18.5184 33.1107 16.7885 33.0907 15.0501C33.151 14.2066 33.151 9.11541 33.151 8.21165ZM13.178 15.9538V6.63008L22.095 11.3145C19.5947 12.7003 16.2959 14.2668 13.178 15.9538Z" fill="white"/>
</svg>
